#!OML:ASF X:\für Bonn\!DataBase\2005_08_10_Bjorn_Final\c3d\bjorn.ASF
:FULLY-SPECIFIED
:DEGREES
136
root 0.451616 15.0908 3.15075 -173.929 -1.17798 -182.503
lowerback 13.4461 1.44699 4.49492
upperback 9.97655 0.779059 0.326638
thorax 3.1137 -0.0382848 -2.2958
lowerneck -25.5607 -0.483575 3.21391
upperneck 8.83343 -1.10777 -5.78593
head 6.72083 -1.09033 -2.58606
rclavicle 1.59028e-015 -1.82882e-014
rhumerus 81.5053 3.63738 -78.1685
rradius 5.11591
rwrist 52.5517
rhand -17.4227 8.68658
rfingers 7.12502
rthumb 8.82741 -21.1088
lclavicle 1.59028e-015 -1.82882e-014
lhumerus 79.1628 -9.97321 85.0177
lradius 5.24944
lwrist -63.7873
lhand -22.2706 -4.65092
lfingers 7.12502
lthumb 4.14747 25.2885
rfemur -55.5741 -10.9944 13.1699
rtibia 96.4687
rfoot -32.8063 10.3218
rtoes -36.0644
lfemur -56.5015 3.66695 -22.1081
ltibia 98.3133
lfoot -25.6102 1.23898
ltoes -34.0902
137
root 0.456925 15.3321 3.11996 -173.687 -1.22356 -182.506
lowerback 12.9091 1.43037 4.46313
upperback 9.81789 0.799235 0.317885
thorax 3.22752 -0.00192596 -2.28342
lowerneck -25.3496 -0.553008 3.11227
upperneck 9.16848 -1.14055 -5.65339
head 6.79838 -1.08387 -2.53039
rclavicle 4.77083e-015 2.62396e-014
rhumerus 81.3154 3.71349 -78.1483
rradius 5.19635
rwrist 52.3844
rhand -17.076 8.64978
rfingers 7.12502
rthumb 9.16205 -21.1312
lclavicle 4.77083e-015 2.62396e-014
lhumerus 78.8769 -10.0917 85.0168
lradius 5.45814
lwrist -63.5026
lhand -21.9251 -4.53114
lfingers 7.12502
lthumb 4.48106 25.4015
rfemur -54.1996 -10.4938 13.2586
rtibia 93.9194
rfoot -32.5966 9.98672
rtoes -35.5688
lfemur -55.0549 3.49527 -22.1175
ltibia 95.6815
lfoot -25.5247 1.40632
ltoes -33.4985
138
root 0.462073 15.5766 3.08845 -173.465 -1.23906 -182.507
lowerback 12.3759 1.42163 4.42466
upperback 9.64679 0.831386 0.298372
thorax 3.32814 0.0404101 -2.27929
lowerneck -25.0519 -0.63229 2.99733
upperneck 9.4931 -1.18894 -5.46314
head 6.85864 -1.07802 -2.45372
rclavicle 3.97569e-015 1.59028e-014
rhumerus 81.0692 3.78422 -78.1491
rradius 5.24376
rwrist 52.2164
rhand -16.8341 8.60471
rfingers 7.12502
rthumb 9.39539 -21.1659
lclavicle 3.97569e-015 1.59028e-014
lhumerus 78.6486 -10.1729 84.988
lradius 5.54555
lwrist -63.1979
lhand -21.522 -4.42997
lfingers 7.12502
lthumb 4.87033 25.4941
rfemur -52.7767 -10.0104 13.3435
rtibia 91.29
rfoot -32.3604 9.61352
rtoes -35.2356
lfemur -53.5472 3.38813 -22.1212
ltibia 92.9618
lfoot -25.43 1.52556
ltoes -32.8885
139
root 0.467143 15.8175 3.05479 -173.243 -1.28517 -182.51
lowerback 11.7535 1.4073 4.3903
upperback 9.50987 0.846563 0.274273
thorax 3.51436 0.0749631 -2.27967
lowerneck -24.7655 -0.696564 2.89166
upperneck 9.7752 -1.22785 -5.2732
head 6.90694 -1.06921 -2.37719
rclavicle 3.18055e-015 2.3059e-014
rhumerus 80.8392 3.84771 -78.1667
rradius 5.27479
rwrist 52.0479
rhand -16.683 8.6197
rfingers 7.12502
rthumb 9.5412 -21.1443
lclavicle 3.18055e-015 2.3059e-014
lhumerus 78.519 -10.243 84.9303
lradius 5.54324
lwrist -62.9124
lhand -21.202 -4.36005
lfingers 7.12502
lthumb 5.17927 25.5567
rfemur -51.3397 -9.60637 13.4172
rtibia 88.6149
rfoot -32.0376 9.35847
rtoes -34.7707
lfemur -52.0324 3.29579 -22.1347
ltibia 90.1821
lfoot -25.2893 1.6783
ltoes -32.4304
140
root 0.472683 16.0594 3.01879 -173.023 -1.31991 -182.512
lowerback 11.1171 1.39163 4.30796
upperback 9.34221 0.861565 0.280082
thorax 3.67425 0.106921 -2.22131
lowerneck -24.4796 -0.779039 2.71378
upperneck 10.1258 -1.26875 -5.0721
head 6.97849 -1.06362 -2.28673
rclavicle -1.98785e-015 -2.94201e-014
rhumerus 80.6054 3.94461 -78.1457
rradius 5.1399
rwrist 51.8939
rhand -16.7055 8.65927
rfingers 7.12502
rthumb 9.51949 -21.1057
lclavicle -1.98785e-015 -2.94201e-014
lhumerus 78.3332 -10.2629 84.9128
lradius 5.4943
lwrist -62.5891
lhand -20.8839 -4.30933
lfingers 7.12502
lthumb 5.48649 25.5996
rfemur -49.8687 -9.2395 13.4842
rtibia 85.8795
rfoot -31.6218 9.1592
rtoes -34.1784
lfemur -50.4876 3.23128 -22.146
ltibia 87.3316
lfoot -25.1219 1.78482
ltoes -31.7181
141
root 0.477397 16.302 2.97917 -172.831 -1.3681 -182.514
lowerback 10.4488 1.37941 4.23875
upperback 9.20285 0.874496 0.279072
thorax 3.88455 0.137608 -2.17679
lowerneck -24.2363 -0.851224 2.53704
upperneck 10.4786 -1.30379 -4.85761
head 7.05775 -1.05571 -2.19201
rclavicle 1.19271e-015 4.77083e-015
rhumerus 80.4141 4.01252 -78.1299
rradius 4.92189
rwrist 51.7615
rhand -16.8532 8.74417
rfingers 7.12502
rthumb 9.377 -21.0273
lclavicle 1.19271e-015 4.77083e-015
lhumerus 78.1781 -10.3265 84.8872
lradius 5.41278
lwrist -62.2365
lhand -20.6607 -4.21294
lfingers 7.12502
lthumb 5.70197 25.6903
rfemur -48.3186 -8.92687 13.5418
rtibia 83.0828
rfoot -31.1353 8.97206
rtoes -33.7913
lfemur -48.8585 3.16828 -22.1514
ltibia 84.3973
lfoot -24.9202 1.87504
ltoes -31.1721
142
root 0.482881 16.5392 2.9365 -172.618 -1.40316 -182.517
lowerback 9.73692 1.37361 4.15456
upperback 9.03966 0.89999 0.275729
thorax 4.09527 0.175669 -2.12617
lowerneck -23.9669 -0.93305 2.36868
upperneck 10.848 -1.35409 -4.65944
head 7.13782 -1.05685 -2.10588
rclavicle 1.86858e-014 -3.97569e-015
rhumerus 80.0525 4.10832 -78.1422
rradius 4.95229
rwrist 51.6186
rhand -16.9331 8.76331
rfingers 7.12502
rthumb 9.29989 -21.0116
lclavicle 1.86858e-014 -3.97569e-015
lhumerus 77.9841 -10.4162 84.8684
lradius 5.3118
lwrist -61.861
lhand -20.4999 -4.1162
lfingers 7.12502
lthumb 5.85716 25.7828
rfemur -46.7976 -8.64617 13.5964
rtibia 80.2705
rfoot -30.5574 8.85414
rtoes -33.2492
lfemur -47.2177 3.15651 -22.1504
ltibia 81.4039
lfoot -24.699 1.84213
ltoes -30.2975
143
root 0.487946 16.7692 2.89192 -172.437 -1.43389 -182.498
lowerback 9.04046 1.36997 4.09194
upperback 8.87668 0.928264 0.275552
thorax 4.30091 0.214759 -2.08414
lowerneck -23.7148 -1.02993 2.15152
upperneck 11.2227 -1.42342 -4.39948
head 7.22249 -1.06424 -1.99406
rclavicle -7.15625e-015 -1.51076e-014
rhumerus 79.6016 4.18078 -78.1606
rradius 5.14195
rwrist 51.5114
rhand -16.9365 8.81122
rfingers 7.12502
rthumb 9.29665 -20.9638
lclavicle -7.15625e-015 -1.51076e-014
lhumerus 77.7843 -10.4959 84.8444
lradius 5.20568
lwrist -61.4554
lhand -20.3458 -4.05069
lfingers 7.12502
lthumb 6.00593 25.8442
rfemur -45.2529 -8.50824 13.6719
rtibia 77.4526
rfoot -29.9178 8.84805
rtoes -32.7066
lfemur -45.5315 3.14268 -22.1058
ltibia 78.3665
lfoot -24.4464 1.69631
ltoes -29.1505
144
root 0.494031 16.9916 2.84488 -172.252 -1.47735 -182.52
lowerback 8.28209 1.37476 4.00809
upperback 8.72873 0.964382 0.236537
thorax 4.55954 0.258622 -2.06967
lowerneck -23.4343 -1.13487 2.01731
upperneck 11.5702 -1.52706 -4.18723
head 7.29172 -1.08981 -1.91498
rclavicle -5.56597e-015 -2.8625e-014
rhumerus 79.16 4.21453 -78.2247
rradius 5.32252
rwrist 51.402
rhand -16.9712 8.81072
rfingers 7.12502
rthumb 9.26313 -20.9658
lclavicle -5.56597e-015 -2.8625e-014
lhumerus 77.5844 -10.6538 84.7853
lradius 5.11148
lwrist -61.0574
lhand -20.2813 -4.01708
lfingers 7.12502
lthumb 6.06821 25.876
rfemur -43.7224 -8.4599 13.7068
rtibia 74.6483
rfoot -29.2405 8.91871
rtoes -32.2121
lfemur -43.8343 3.14508 -22.0973
ltibia 75.2995
lfoot -24.1347 1.43078
ltoes -27.7798
145
root 0.500417 17.2078 2.79685 -172.085 -1.50527 -182.504
lowerback 7.54354 1.37024 3.91498
upperback 8.56756 0.987498 0.238418
thorax 4.79315 0.292632 -2.00653
lowerneck -23.0263 -1.2126 1.89198
upperneck 11.8522 -1.59241 -4.03176
head 7.31985 -1.10269 -1.84892
rclavicle 1.39149e-014 9.54166e-015
rhumerus 78.7273 4.31818 -78.2597
rradius 5.51246
rwrist 51.2567
rhand -16.9161 8.8074
rfingers 7.12502
rthumb 9.3163 -20.9667
lclavicle 1.39149e-014 9.54166e-015
lhumerus 77.3489 -10.7373 84.759
lradius 5.00665
lwrist -60.6381
lhand -20.2951 -3.92823
lfingers 7.12502
lthumb 6.05494 25.9652
rfemur -42.1798 -8.402 13.7734
rtibia 71.8522
rfoot -28.5037 9.03359
rtoes -31.4941
lfemur -42.1138 3.17569 -22.0389
ltibia 72.2133
lfoot -23.8118 1.13796
ltoes -26.3151
146
root 0.506705 17.4148 2.74843 -171.939 -1.54458 -182.503
lowerback 6.82445 1.3632 3.81811
upperback 8.41605 1.00486 0.234269
thorax 5.02808 0.321988 -1.94725
lowerneck -22.5426 -1.28998 1.77429
upperneck 12.0508 -1.66602 -3.87299
head 7.30751 -1.11949 -1.78187
rclavicle -1.98785e-014 -2.62396e-014
rhumerus 78.3292 4.39609 -78.2878
rradius 5.66769
rwrist 51.1389
rhand -16.8589 8.85589
rfingers 7.12502
rthumb 9.37148 -20.9158
lclavicle -1.98785e-014 -2.62396e-014
lhumerus 77.1049 -10.8268 84.7317
lradius 4.94047
lwrist -60.1992
lhand -20.3151 -3.87934
lfingers 7.12502
lthumb 6.03556 26.0147
rfemur -40.6392 -8.40143 13.8167
rtibia 69.0717
rfoot -27.7348 9.19368
rtoes -30.7456
lfemur -40.3877 3.21098 -22.0001
ltibia 69.1282
lfoot -23.4458 0.835251
ltoes -24.9517
147
root 0.514213 17.6145 2.7008 -171.779 -1.58286 -182.487
lowerback 6.11268 1.36986 3.74769
upperback 8.24903 1.04454 0.221313
thorax 5.24671 0.364072 -1.91187
lowerneck -21.9948 -1.3734 1.75779
upperneck 12.2179 -1.76419 -3.82335
head 7.27141 -1.15493 -1.76908
rclavicle -3.57812e-015 -1.98785e-014
rhumerus 77.9493 4.42291 -78.3193
rradius 5.80614
rwrist 51.0554
rhand -16.7448 8.89341
rfingers 7.12502
rthumb 9.48157 -20.8733
lclavicle -3.57812e-015 -1.98785e-014
lhumerus 76.8507 -10.9703 84.7015
lradius 4.88391
lwrist -59.7641
lhand -20.4394 -3.85209
lfingers 7.12502
lthumb 5.91561 26.0453
rfemur -39.1246 -8.41049 13.8835
rtibia 66.298
rfoot -26.9309 9.3403
rtoes -29.9508
lfemur -38.7072 3.27943 -21.936
ltibia 66.054
lfoot -23.015 0.517251
ltoes -23.4472
148
root 0.523068 17.8112 2.6526 -171.647 -1.62895 -182.488
lowerback 5.46657 1.35757 3.63208
upperback 8.07115 1.05866 0.222583
thorax 5.4149 0.388094 -1.83658
lowerneck -21.3902 -1.44789 1.71226
upperneck 12.3448 -1.8449 -3.77566
head 7.2131 -1.18441 -1.7487
rclavicle -3.18055e-014 -3.4191e-014
rhumerus 77.5906 4.50363 -78.3405
rradius 5.93136
rwrist 50.9689
rhand -16.5897 8.88866
rfingers 7.12502
rthumb 9.6312 -20.8712
lclavicle -3.18055e-014 -3.4191e-014
lhumerus 76.5464 -11.0641 84.6867
lradius 4.86918
lwrist -59.3149
lhand -20.6021 -3.85229
lfingers 7.12502
lthumb 5.75854 26.0495
rfemur -37.5854 -8.4641 13.9329
rtibia 63.5247
rfoot -26.0904 9.48762
rtoes -29.1784
lfemur -37.0043 3.37109 -21.8808
ltibia 62.9929
lfoot -22.5351 0.131217
ltoes -21.9898
149
root 0.531813 18.0009 2.6056 -171.534 -1.66112 -182.471
lowerback 4.86823 1.35894 3.55829
upperback 7.90476 1.08976 0.21054
thorax 5.57281 0.42111 -1.79894
lowerneck -20.8861 -1.52692 1.69043
upperneck 12.5132 -1.93899 -3.74233
head 7.18359 -1.22234 -1.74036
rclavicle -7.95139e-015 1.19271e-014
rhumerus 77.2719 4.52992 -78.3686
rradius 6.02852
rwrist 50.9106
rhand -16.3938 8.89247
rfingers 7.12502
rthumb 9.82025 -20.8585
lclavicle -7.95139e-015 1.19271e-014
lhumerus 76.2581 -11.1944 84.6542
lradius 4.89261
lwrist -58.8992
lhand -20.8009 -3.89333
lfingers 7.12502
lthumb 5.56661 26.0136
rfemur -36.0527 -8.52587 13.9978
rtibia 60.7735
rfoot -25.1872 9.67258
rtoes -28.2578
lfemur -35.3228 3.4891 -21.8072
ltibia 59.9786
lfoot -22.0343 -0.205416
ltoes -20.5734
150
root 0.541897 18.1788 2.56038 -171.415 -1.69162 -182.431
lowerback 4.32851 1.34925 3.49504
upperback 7.69314 1.11287 0.213539
thorax 5.64956 0.449715 -1.7521
lowerneck -20.2924 -1.59387 1.64475
upperneck 12.6363 -2.01012 -3.72775
head 7.12479 -1.2528 -1.72962
rclavicle -1.78906e-014 3.18055e-015
rhumerus 76.9198 4.60606 -78.3947
rradius 6.07391
rwrist 50.9198
rhand -16.2476 8.89712
rfingers 7.12502
rthumb 9.96132 -20.8472
lclavicle -1.78906e-014 3.18055e-015
lhumerus 75.8679 -11.3092 84.6482
lradius 4.98332
lwrist -58.5817
lhand -21.025 -3.85935
lfingers 7.12502
lthumb 5.35019 26.0531
rfemur -34.5732 -8.60197 14.0904
rtibia 58.0739
rfoot -24.2697 9.87359
rtoes -27.2817
lfemur -33.724 3.67334 -21.7118
ltibia 57.0501
lfoot -21.4681 -0.551749
ltoes -19.4182
